<svg xmlns="http://www.w3.org/2000/svg" viewBox="0 0 32 32" width="24" height="24" style="border-color: rgba(187,187,187,1);border-width: 0px;border-style: solid" filter="none">
    
    <g>
    <path d="M16 28.444c6.873 0 12.444-5.572 12.444-12.444s-5.572-12.444-12.444-12.444c-6.873 0-12.444 5.572-12.444 12.444s5.572 12.444 12.444 12.444zM16 30.222c-7.855 0-14.222-6.367-14.222-14.222s6.367-14.222 14.222-14.222 14.222 6.367 14.222 14.222-6.367 14.222-14.222 14.222z" fill="rgba(41.055,99.96000000000001,164.985,1)"></path><path d="M15.903 7.111c0.318 0 0.584 0.241 0.616 0.557l0.869 8.691 5.426 3.407c0.271 0.17 0.373 0.515 0.238 0.805s-0.465 0.434-0.77 0.336l-8.058-2.603 1.064-10.636c0.032-0.316 0.298-0.557 0.616-0.557z" fill="rgba(41.055,99.96000000000001,164.985,1)"></path>
    </g>
  </svg>