<svg xmlns="http://www.w3.org/2000/svg" viewBox="0 0 448 512" width="26" height="26" style="border-color: rgba(187,187,187,1);border-width: 0px;border-style: solid" filter="none">
    
    <g>
    <path d="M288 44v40c0 8.837-7.163 16-16 16H16c-8.837 0-16-7.163-16-16V44c0-8.837 7.163-16 16-16h256c8.837 0 16 7.163 16 16zM0 172v40c0 8.837 7.163 16 16 16h416c8.837 0 16-7.163 16-16v-40c0-8.837-7.163-16-16-16H16c-8.837 0-16 7.163-16 16zm16 312h416c8.837 0 16-7.163 16-16v-40c0-8.837-7.163-16-16-16H16c-8.837 0-16 7.163-16 16v40c0 8.837 7.163 16 16 16zm256-200H16c-8.837 0-16 7.163-16 16v40c0 8.837 7.163 16 16 16h256c8.837 0 16-7.163 16-16v-40c0-8.837-7.163-16-16-16z" fill="rgba(16.065,16.065,16.065,1)"></path>
    </g>
  </svg>