<svg xmlns="http://www.w3.org/2000/svg" viewBox="0 0 32 32" width="24" height="24" style="border-color: rgba(0,0,0,0);border-width: bpx;border-style: undefined" filter="none">
    
    <g>
    <path d="M2.733 17.333h7.303c0.247 4.435 1.668 8.494 3.955 11.927l-0.055-0.087c-5.973-0.964-10.574-5.782-11.198-11.783l-0.005-0.057zM2.733 14.667c0.629-6.058 5.23-10.876 11.126-11.83l0.077-0.010c-2.232 3.346-3.653 7.405-3.897 11.778l-0.003 0.062h-7.303zM29.267 14.667h-7.303c-0.247-4.435-1.668-8.494-3.955-11.927l0.055 0.087c5.973 0.964 10.574 5.782 11.198 11.783l0.005 0.057zM29.267 17.333c-0.629 6.058-5.23 10.876-11.126 11.83l-0.077 0.010c2.232-3.346 3.653-7.405 3.897-11.778l0.003-0.062h7.304zM12.707 17.333h6.587c-0.237 3.785-1.433 7.249-3.344 10.206l0.050-0.083c-1.861-2.874-3.056-6.337-3.29-10.062l-0.003-0.061zM12.707 14.667c0.237-3.785 1.433-7.249 3.344-10.206l-0.050 0.083c1.861 2.874 3.056 6.337 3.29 10.062l0.003 0.061h-6.587z" fill="rgba(16.065,16.065,16.065,1)"></path>
    </g>
  </svg>